<svg xmlns="http://www.w3.org/2000/svg" viewBox="0 0 9.5 8.04"><defs><style>.cls-1{opacity:0.3;}.cls-2{fill:#fff;}</style></defs><g id="Слой_2" data-name="Слой 2"><g id="main"><g class="cls-1"><path class="cls-2" d="M9.5,4a.38.38,0,0,1-.33.36l-6,.7a1.77,1.77,0,0,1,.08.4.8.8,0,0,1-.14.36H8.4a.38.38,0,0,1,.37.37.37.37,0,0,1-.37.36H2.56a.37.37,0,0,1-.37-.36,2.84,2.84,0,0,1,.35-.78l-1-4.7H.37A.37.37,0,0,1,0,.37.38.38,0,0,1,.37,0H1.83c.38,0,.39.46.45.73H9.13a.38.38,0,0,1,.37.37ZM2.92,8a.74.74,0,1,1,.73-.74A.74.74,0,0,1,2.92,8ZM8,8a.74.74,0,1,1,.73-.74A.75.75,0,0,1,8,8Z"/></g></g></g></svg>